# xmcd CD database file
#
# Track frame offsets:
#	150
#	38213
#	61081
#	86843
#	124258
#	154979
#	188432
#	232924
#	258481
#	271014
#
# Disc length: 3929 seconds
#
# Revision: 1
# Processed by: cddbd v1.5.2PL0 Copyright (c) Steve Scherf et al.
# Submitted via: CDex 1.51
#
DISCID=7c0f570a
DTITLE=Luigi Boccherini - Concertos pour violoncelle N°9 and 10 - Symphonie Op.41
DYEAR=1900
DGENRE=Classique
TTITLE0=Concerto pour violoncelle N°9  en si bémol majeur - I. Allegro moderato  [dir. Georg Egger]
TTITLE1=Concerto pour violoncelle N°9  en si bémol majeur - II. Andante grazioso  [Streicherakademie Bozen]
TTITLE2=Concerto pour violoncelle N°9  en si bémol majeur - III. Rondo - Allegro  [Wen-Sinn Yang, violoncelle]
TTITLE3=Concerto pour violoncelle N°10  en ré majeur - I. Allegro moderato
TTITLE4=Concerto pour violoncelle N°10  en ré majeur - II. Andante lentarello
TTITLE5=Concerto pour violoncelle N°10  en ré majeur - III. Allegro e con moto
TTITLE6=Symphonie en ut mineur, Op.41 - I. Allegro vivo assai      [dir. Giorgio Bernasconi]
TTITLE7=Symphonie en ut mineur, Op.41 - II. Pastorale lentarello   [Accademia Strumentale Italiana]
TTITLE8=Symphonie en ut mineur, Op.41 - III. Minuetto allegro
TTITLE9=Symphonie en ut mineur, Op.41 - IV. Allegro
EXTD=
EXTT0=
EXTT1=
EXTT2=
EXTT3=
EXTT4=
EXTT5=
EXTT6=
EXTT7=
EXTT8=
EXTT9=
PLAYORDER=
